<?xml version="1.0" encoding="UTF-8" standalone="no"?>
<!DOCTYPE svg PUBLIC "-//W3C//DTD SVG 1.1//EN" "http://www.w3.org/Graphics/SVG/1.1/DTD/svg11.dtd">
<svg width="100%" height="100%" viewBox="0 0 1320 1320" version="1.1" xmlns="http://www.w3.org/2000/svg" xmlns:xlink="http://www.w3.org/1999/xlink" xml:space="preserve" xmlns:serif="http://www.serif.com/" style="fill-rule:evenodd;clip-rule:evenodd;stroke-linecap:round;stroke-linejoin:round;stroke-miterlimit:1.5;">
    <g>
        <g transform="matrix(1.078942,0,0,1.114784,-91.921568,-99.491762)">
            <path d="M1154.881,459.946L1154.881,902.635C1154.881,1024.798 1052.406,1123.979 926.184,1123.979L467.629,1123.979C341.408,1123.979 238.932,1024.798 238.932,902.635L238.932,459.946C238.932,337.783 341.408,238.602 467.629,238.602L926.184,238.602C1052.406,238.602 1154.881,337.783 1154.881,459.946Z" style="fill:rgb(201,191,255);"/>
        </g>
        <g transform="matrix(0.866763,0,0,0.895526,55.946977,49.88642)">
            <path d="M1154.881,445.279L1154.881,917.302C1154.881,1031.371 1059.199,1123.979 941.346,1123.979L452.467,1123.979C334.614,1123.979 238.932,1031.371 238.932,917.302L238.932,445.279C238.932,331.21 334.614,238.602 452.467,238.602L941.346,238.602C1059.199,238.602 1154.881,331.21 1154.881,445.279Z" style="fill:rgb(91,80,158);"/>
        </g>
        <g transform="matrix(0.322367,0,0,0.255189,443.372576,494.636682)">
            <path d="M1154.881,459.946L1154.881,902.635C1154.881,1024.798 1076.368,1123.979 979.662,1123.979L414.151,1123.979C317.445,1123.979 238.932,1024.798 238.932,902.635L238.932,459.946C238.932,337.783 317.445,238.602 414.151,238.602L979.662,238.602C1076.368,238.602 1154.881,337.783 1154.881,459.946Z" style="fill:rgb(230,233,252);"/>
        </g>
        <g>
            <g transform="matrix(1.491928,0,0,1.491928,-163.850559,6.075638)">
                <path d="M329.984,444.002C329.936,442.11 329.912,440.212 329.912,438.308C329.912,356.708 374.095,285.345 439.823,246.859C507.435,290.674 552.205,366.793 552.205,453.286C552.205,367.037 596.724,291.103 664.017,247.23C729.396,285.803 773.296,356.969 773.296,438.308C773.296,440.252 773.271,442.189 773.221,444.12C690.719,452.398 620.19,501.543 582.205,570.986C567.435,597.988 557.586,628.059 553.866,659.989C553.113,659.996 552.359,660 551.604,660C551.251,660 550.898,659.999 550.546,659.998C546.827,628.064 536.977,597.99 522.206,570.986C484.036,501.205 413.005,451.919 329.984,444.002Z" style="fill:rgb(230,233,252);"/>
            </g>
            <g transform="matrix(1,0,0,1,-44.465721,-374.623996)">
                <path d="M871.28,749.549C968.82,807.096 1034.316,913.272 1034.316,1034.624C1034.316,1037.523 1034.279,1040.413 1034.205,1043.295C911.117,1055.644 805.893,1128.965 749.223,1232.57C720.69,1180.407 704.466,1120.568 704.466,1056.97C704.466,928.292 770.885,815.004 871.28,749.549Z" style="fill:rgb(230,233,252);"/>
            </g>
            <g transform="matrix(1,0,0,1,-777.906065,-374.623996)">
                <path d="M1106.368,1043.119C1106.297,1040.296 1106.261,1037.464 1106.261,1034.624C1106.261,912.882 1172.179,806.413 1270.24,748.995C1371.111,814.364 1437.906,927.928 1437.906,1056.97C1437.906,1120.568 1421.681,1180.407 1393.149,1232.57C1336.203,1128.461 1230.229,1054.931 1106.368,1043.119Z" style="fill:rgb(230,233,252);"/>
            </g>
            <path d="M657.481,639.177C644.445,528.217 581.79,432.342 492.334,374.371C541.308,345.694 598.301,329.252 659.103,329.252C720.295,329.252 777.629,345.906 826.814,374.925C737.813,432.951 675.513,528.57 662.519,639.177C662.329,640.795 662.149,642.417 661.98,644.041C661.511,646.433 660.798,647.959 660,647.959C659.202,647.959 658.489,646.433 658.02,644.041C657.851,642.417 657.671,640.795 657.481,639.177Z" style="fill:rgb(187,194,241);"/>
            <path d="M528.255,963.816C413.163,914.131 331.808,800.932 328.462,668.495C452.323,680.307 558.296,753.837 615.243,857.946C593.068,898.486 563.459,934.389 528.255,963.816Z" style="fill:rgb(187,194,241);stroke:rgb(187,194,241);stroke-width:1px;"/>
            <path d="M657.524,990.744C611.633,990.529 567.939,980.948 528.255,963.816C563.459,934.389 593.068,898.486 615.243,857.946C637.28,898.234 651.976,943.102 657.524,990.744Z" style="fill:rgb(187,194,241);stroke:rgb(187,194,241);stroke-width:1px;"/>
            <path d="M791.133,963.303C751.652,980.531 708.168,990.273 662.478,990.731C668.027,943.094 682.722,898.23 704.757,857.946C726.803,898.25 756.197,933.972 791.133,963.303Z" style="fill:rgb(187,194,241);stroke:rgb(187,194,241);stroke-width:1px;"/>
            <path d="M989.739,668.671C986.337,800.579 905.548,913.377 791.133,963.303C756.197,933.972 726.803,898.25 704.757,857.946C761.428,754.341 866.651,681.02 989.739,668.671Z" style="fill:rgb(187,194,241);stroke:rgb(187,194,241);stroke-width:1px;"/>
        </g>
        <g transform="matrix(0.544985,0,0,0.544985,303.679699,448.209337)">
            <circle cx="653.817" cy="995.512" r="60.928" style="fill:rgb(156,145,223);"/>
        </g>
        <g>
            <g>
                <path d="M476.749,572.985L476.749,570.139L476.837,570.139C476.779,571.08 476.749,572.029 476.749,572.985ZM567.256,570.139L567.344,570.139L567.344,572.985C567.344,572.029 567.314,571.08 567.256,570.139ZM544.051,602.741C544.234,597.591 549.381,593.457 555.695,593.457C557.902,593.457 559.966,593.962 561.726,594.839C560.161,597.672 558.301,600.32 556.189,602.741L544.051,602.741Z" style="fill:rgb(91,80,158);stroke:rgb(91,80,158);stroke-width:0.46px;"/>
                <g transform="matrix(1.13431,0,0,1.006412,-76.200248,-4.380288)">
                    <path d="M550.363,610.513C551.006,610.966 551.636,611.438 552.25,611.927C551.52,611.566 550.842,611.126 550.229,610.619C549.945,610.383 549.675,610.133 549.42,609.869C549.738,610.08 550.052,610.294 550.363,610.513ZM504.591,610.619C503.979,611.126 503.301,611.566 502.57,611.927C503.185,611.438 503.814,610.966 504.457,610.513C504.768,610.294 505.082,610.08 505.4,609.869C505.145,610.133 504.875,610.383 504.591,610.619Z" style="fill:rgb(91,80,158);stroke:rgb(91,80,158);stroke-width:0.43px;"/>
                </g>
                <g transform="matrix(1.031462,0,0,1.031462,-17.850018,-22.554252)">
                    <path d="M548.523,613.409C548.21,613.179 547.913,612.935 547.633,612.678C547.982,612.883 548.328,613.092 548.67,613.306L548.523,613.409ZM499.223,612.678C498.943,612.935 498.646,613.179 498.334,613.409L498.187,613.306C498.529,613.092 498.874,612.883 499.223,612.678ZM544.762,606.222C544.939,601.23 549.929,597.221 556.051,597.221C558.19,597.221 560.191,597.711 561.897,598.561C560.38,601.307 558.577,603.875 556.529,606.222L544.762,606.222Z" style="fill:rgb(91,80,158);stroke:rgb(91,80,158);stroke-width:0.44px;"/>
                </g>
                <g transform="matrix(1.106199,0,0,1.942594,16.667067,-577.424955)">
                    <path d="M480.397,611.282C481.057,611.516 481.702,611.761 482.333,612.014C481.584,611.827 480.888,611.599 480.261,611.336C479.969,611.214 479.692,611.085 479.431,610.948C479.756,611.057 480.078,611.168 480.397,611.282ZM476.754,607.521C476.918,604.87 481.572,602.741 487.28,602.741C489.274,602.741 491.14,603.001 492.731,603.453C491.317,604.911 489.636,606.274 487.726,607.521L476.754,607.521ZM480.397,611.282C481.057,611.516 481.702,611.761 482.333,612.014C481.584,611.827 480.888,611.599 480.261,611.336C479.969,611.214 479.692,611.085 479.431,610.948C479.756,611.057 480.078,611.168 480.397,611.282Z" style="fill:rgb(91,80,158);stroke:rgb(91,80,158);stroke-width:0.29px;"/>
                </g>
                <path d="M476.837,570.139C478.308,546.462 498.002,527.687 522.047,527.687C546.091,527.687 565.785,546.462 567.256,570.139L476.837,570.139Z" style="fill:rgb(91,80,158);stroke:rgb(91,80,158);stroke-width:0.46px;"/>
                <path d="M476.749,572.985C476.749,572.029 476.779,571.08 476.837,570.139L567.256,570.139C567.314,571.08 567.344,572.029 567.344,572.985C567.344,580.907 565.306,588.357 561.726,594.839C559.966,593.962 557.902,593.457 555.695,593.457C549.381,593.457 544.234,597.591 544.051,602.741L500.042,602.741C499.859,597.591 494.712,593.457 488.398,593.457C486.191,593.457 484.127,593.962 482.367,594.839C478.787,588.357 476.749,580.907 476.749,572.985Z" style="fill:rgb(91,80,158);stroke:rgb(91,80,158);stroke-width:0.46px;"/>
                <path d="M476.754,602.741L476.749,602.741L476.749,572.985C476.749,580.907 478.787,588.357 482.367,594.839C479.092,596.471 476.873,599.391 476.754,602.741Z" style="fill:rgb(91,80,158);stroke:rgb(91,80,158);stroke-width:0.46px;"/>
                <path d="M482.367,594.839C484.127,593.962 486.191,593.457 488.398,593.457C494.712,593.457 499.859,597.591 500.042,602.741L487.904,602.741C485.792,600.32 483.932,597.672 482.367,594.839Z" style="fill:rgb(91,80,158);stroke:rgb(91,80,158);stroke-width:0.46px;"/>
                <path d="M487.904,602.741L476.754,602.741C476.873,599.391 479.092,596.471 482.367,594.839C483.932,597.672 485.792,600.32 487.904,602.741Z" style="fill:rgb(91,80,158);stroke:rgb(91,80,158);stroke-width:0.46px;"/>
                <path d="M493.87,611.47C492.238,612.186 490.375,612.591 488.398,612.591C481.969,612.591 476.749,608.304 476.749,603.024C476.749,602.929 476.751,602.835 476.754,602.741L487.904,602.741C490.301,605.488 493.023,607.944 496.011,610.048C495.281,610.504 494.567,610.978 493.87,611.47Z" style="fill:rgb(91,80,158);stroke:rgb(91,80,158);stroke-width:0.46px;"/>
                <path d="M496.011,610.048C493.023,607.944 490.301,605.488 487.904,602.741L500.042,602.741C500.045,602.835 500.047,602.929 500.047,603.024C500.047,605.472 498.925,607.707 497.08,609.4C496.72,609.611 496.364,609.827 496.011,610.048Z" style="fill:rgb(91,80,158);stroke:rgb(91,80,158);stroke-width:0.46px;"/>
                <path d="M522.047,602.741C512.823,602.741 504.24,605.192 497.08,609.4C498.925,607.707 500.047,605.472 500.047,603.024C500.047,602.929 500.045,602.835 500.042,602.741L522.047,602.741Z" style="fill:rgb(91,80,158);stroke:rgb(91,80,158);stroke-width:0.46px;"/>
                <path d="M547.013,609.4C539.853,605.192 531.27,602.741 522.047,602.741L544.051,602.741C544.048,602.835 544.046,602.929 544.046,603.024C544.046,605.472 545.168,607.707 547.013,609.4Z" style="fill:rgb(91,80,158);stroke:rgb(91,80,158);stroke-width:0.46px;"/>
                <path d="M556.189,602.741C553.792,605.488 551.07,607.944 548.082,610.048C547.729,609.827 547.373,609.611 547.013,609.4C545.168,607.707 544.046,605.472 544.046,603.024C544.046,602.929 544.048,602.835 544.051,602.741L556.189,602.741Z" style="fill:rgb(91,80,158);stroke:rgb(91,80,158);stroke-width:0.46px;"/>
                <path d="M567.339,602.741C567.342,602.835 567.344,602.929 567.344,603.024C567.344,608.304 562.124,612.591 555.695,612.591C553.718,612.591 551.855,612.186 550.223,611.47C549.526,610.978 548.812,610.504 548.082,610.048C551.07,607.944 553.792,605.488 556.189,602.741L567.339,602.741Z" style="fill:rgb(91,80,158);stroke:rgb(91,80,158);stroke-width:0.46px;"/>
                <path d="M561.726,594.839C565.001,596.471 567.22,599.391 567.339,602.741L556.189,602.741C558.301,600.32 560.161,597.672 561.726,594.839Z" style="fill:rgb(91,80,158);stroke:rgb(91,80,158);stroke-width:0.46px;"/>
                <path d="M567.344,572.985L567.344,602.741L567.339,602.741C567.22,599.391 565.001,596.471 561.726,594.839C565.306,588.357 567.344,580.907 567.344,572.985Z" style="fill:rgb(91,80,158);stroke:rgb(91,80,158);stroke-width:0.46px;"/>
                <path d="M544.051,602.741C544.234,597.591 549.381,593.457 555.695,593.457C557.902,593.457 559.966,593.962 561.726,594.839C560.161,597.672 558.301,600.32 556.189,602.741L544.051,602.741Z" style="fill:rgb(91,80,158);stroke:rgb(91,80,158);stroke-width:0.46px;"/>
            </g>
            <g transform="matrix(1,0,0,1,276.171524,0)">
                <path d="M476.749,572.985L476.749,570.139L476.837,570.139C476.779,571.08 476.749,572.029 476.749,572.985ZM567.256,570.139L567.344,570.139L567.344,572.985C567.344,572.029 567.314,571.08 567.256,570.139ZM544.051,602.741C544.234,597.591 549.381,593.457 555.695,593.457C557.902,593.457 559.966,593.962 561.726,594.839C560.161,597.672 558.301,600.32 556.189,602.741L544.051,602.741Z" style="fill:rgb(91,80,158);stroke:rgb(91,80,158);stroke-width:0.46px;"/>
                <g transform="matrix(1.13431,0,0,1.006412,-76.200248,-4.380288)">
                    <path d="M550.363,610.513C551.006,610.966 551.636,611.438 552.25,611.927C551.52,611.566 550.842,611.126 550.229,610.619C549.945,610.383 549.675,610.133 549.42,609.869C549.738,610.08 550.052,610.294 550.363,610.513ZM504.591,610.619C503.979,611.126 503.301,611.566 502.57,611.927C503.185,611.438 503.814,610.966 504.457,610.513C504.768,610.294 505.082,610.08 505.4,609.869C505.145,610.133 504.875,610.383 504.591,610.619Z" style="fill:rgb(91,80,158);stroke:rgb(91,80,158);stroke-width:0.43px;"/>
                </g>
                <g transform="matrix(1.031462,0,0,1.031462,-17.850018,-22.554252)">
                    <path d="M548.523,613.409C548.21,613.179 547.913,612.935 547.633,612.678C547.982,612.883 548.328,613.092 548.67,613.306L548.523,613.409ZM499.223,612.678C498.943,612.935 498.646,613.179 498.334,613.409L498.187,613.306C498.529,613.092 498.874,612.883 499.223,612.678ZM544.762,606.222C544.939,601.23 549.929,597.221 556.051,597.221C558.19,597.221 560.191,597.711 561.897,598.561C560.38,601.307 558.577,603.875 556.529,606.222L544.762,606.222Z" style="fill:rgb(91,80,158);stroke:rgb(91,80,158);stroke-width:0.44px;"/>
                </g>
                <g transform="matrix(1.106199,0,0,1.942594,16.667067,-577.424955)">
                    <path d="M480.397,611.282C481.057,611.516 481.702,611.761 482.333,612.014C481.584,611.827 480.888,611.599 480.261,611.336C479.969,611.214 479.692,611.085 479.431,610.948C479.756,611.057 480.078,611.168 480.397,611.282ZM476.754,607.521C476.918,604.87 481.572,602.741 487.28,602.741C489.274,602.741 491.14,603.001 492.731,603.453C491.317,604.911 489.636,606.274 487.726,607.521L476.754,607.521ZM480.397,611.282C481.057,611.516 481.702,611.761 482.333,612.014C481.584,611.827 480.888,611.599 480.261,611.336C479.969,611.214 479.692,611.085 479.431,610.948C479.756,611.057 480.078,611.168 480.397,611.282Z" style="fill:rgb(91,80,158);stroke:rgb(91,80,158);stroke-width:0.29px;"/>
                </g>
                <path d="M476.837,570.139C478.308,546.462 498.002,527.687 522.047,527.687C546.091,527.687 565.785,546.462 567.256,570.139L476.837,570.139Z" style="fill:rgb(91,80,158);stroke:rgb(91,80,158);stroke-width:0.46px;"/>
                <path d="M476.749,572.985C476.749,572.029 476.779,571.08 476.837,570.139L567.256,570.139C567.314,571.08 567.344,572.029 567.344,572.985C567.344,580.907 565.306,588.357 561.726,594.839C559.966,593.962 557.902,593.457 555.695,593.457C549.381,593.457 544.234,597.591 544.051,602.741L500.042,602.741C499.859,597.591 494.712,593.457 488.398,593.457C486.191,593.457 484.127,593.962 482.367,594.839C478.787,588.357 476.749,580.907 476.749,572.985Z" style="fill:rgb(91,80,158);stroke:rgb(91,80,158);stroke-width:0.46px;"/>
                <path d="M476.754,602.741L476.749,602.741L476.749,572.985C476.749,580.907 478.787,588.357 482.367,594.839C479.092,596.471 476.873,599.391 476.754,602.741Z" style="fill:rgb(91,80,158);stroke:rgb(91,80,158);stroke-width:0.46px;"/>
                <path d="M482.367,594.839C484.127,593.962 486.191,593.457 488.398,593.457C494.712,593.457 499.859,597.591 500.042,602.741L487.904,602.741C485.792,600.32 483.932,597.672 482.367,594.839Z" style="fill:rgb(91,80,158);stroke:rgb(91,80,158);stroke-width:0.46px;"/>
                <path d="M487.904,602.741L476.754,602.741C476.873,599.391 479.092,596.471 482.367,594.839C483.932,597.672 485.792,600.32 487.904,602.741Z" style="fill:rgb(91,80,158);stroke:rgb(91,80,158);stroke-width:0.46px;"/>
                <path d="M493.87,611.47C492.238,612.186 490.375,612.591 488.398,612.591C481.969,612.591 476.749,608.304 476.749,603.024C476.749,602.929 476.751,602.835 476.754,602.741L487.904,602.741C490.301,605.488 493.023,607.944 496.011,610.048C495.281,610.504 494.567,610.978 493.87,611.47Z" style="fill:rgb(91,80,158);stroke:rgb(91,80,158);stroke-width:0.46px;"/>
                <path d="M496.011,610.048C493.023,607.944 490.301,605.488 487.904,602.741L500.042,602.741C500.045,602.835 500.047,602.929 500.047,603.024C500.047,605.472 498.925,607.707 497.08,609.4C496.72,609.611 496.364,609.827 496.011,610.048Z" style="fill:rgb(91,80,158);stroke:rgb(91,80,158);stroke-width:0.46px;"/>
                <path d="M522.047,602.741C512.823,602.741 504.24,605.192 497.08,609.4C498.925,607.707 500.047,605.472 500.047,603.024C500.047,602.929 500.045,602.835 500.042,602.741L522.047,602.741Z" style="fill:rgb(91,80,158);stroke:rgb(91,80,158);stroke-width:0.46px;"/>
                <path d="M547.013,609.4C539.853,605.192 531.27,602.741 522.047,602.741L544.051,602.741C544.048,602.835 544.046,602.929 544.046,603.024C544.046,605.472 545.168,607.707 547.013,609.4Z" style="fill:rgb(91,80,158);stroke:rgb(91,80,158);stroke-width:0.46px;"/>
                <path d="M556.189,602.741C553.792,605.488 551.07,607.944 548.082,610.048C547.729,609.827 547.373,609.611 547.013,609.4C545.168,607.707 544.046,605.472 544.046,603.024C544.046,602.929 544.048,602.835 544.051,602.741L556.189,602.741Z" style="fill:rgb(91,80,158);stroke:rgb(91,80,158);stroke-width:0.46px;"/>
                <path d="M567.339,602.741C567.342,602.835 567.344,602.929 567.344,603.024C567.344,608.304 562.124,612.591 555.695,612.591C553.718,612.591 551.855,612.186 550.223,611.47C549.526,610.978 548.812,610.504 548.082,610.048C551.07,607.944 553.792,605.488 556.189,602.741L567.339,602.741Z" style="fill:rgb(91,80,158);stroke:rgb(91,80,158);stroke-width:0.46px;"/>
                <path d="M561.726,594.839C565.001,596.471 567.22,599.391 567.339,602.741L556.189,602.741C558.301,600.32 560.161,597.672 561.726,594.839Z" style="fill:rgb(91,80,158);stroke:rgb(91,80,158);stroke-width:0.46px;"/>
                <path d="M567.344,572.985L567.344,602.741L567.339,602.741C567.22,599.391 565.001,596.471 561.726,594.839C565.306,588.357 567.344,580.907 567.344,572.985Z" style="fill:rgb(91,80,158);stroke:rgb(91,80,158);stroke-width:0.46px;"/>
                <path d="M544.051,602.741C544.234,597.591 549.381,593.457 555.695,593.457C557.902,593.457 559.966,593.962 561.726,594.839C560.161,597.672 558.301,600.32 556.189,602.741L544.051,602.741Z" style="fill:rgb(91,80,158);stroke:rgb(91,80,158);stroke-width:0.46px;"/>
            </g>
        </g>
        <g transform="matrix(1,0,0,1,0.386757,0)">
            <path d="M552.398,739.124C625.689,802.766 697.164,803.878 766.828,739.124" style="fill:none;stroke:rgb(91,80,158);stroke-width:45.83px;"/>
        </g>
    </g>
</svg>
